<svg width="340" height="34" viewBox="0 0 340 34" fill="none" xmlns="http://www.w3.org/2000/svg">
<path fill-rule="evenodd" clip-rule="evenodd" d="M13.725 15.6957C14.4147 16.9565 13.9555 18.5397 12.6991 19.2319C12.3029 19.4502 11.8746 19.5538 11.4524 19.5538C10.5358 19.5538 9.64742 19.0656 9.17515 18.2023L1.9086 4.92046C1.21893 3.65971 1.67829 2.07654 2.93453 1.38434C4.19117 0.692262 5.76882 1.15315 6.45846 2.41394L13.725 15.6957ZM45.3506 21.608L33.9313 2.33623C33.6358 1.83716 33.1988 1.47619 32.7032 1.26804L32.7026 1.26788C32.6294 1.23713 32.5551 1.20975 32.4794 1.18597C32.4638 1.18084 32.4479 1.17611 32.4321 1.17139C32.3726 1.1539 32.3125 1.13836 32.2518 1.12517C32.2234 1.11888 32.1948 1.11289 32.1662 1.10766C32.1172 1.09864 32.0682 1.0912 32.0187 1.085C31.9807 1.08028 31.9428 1.07598 31.9049 1.07294C31.8632 1.06957 31.8215 1.0676 31.7796 1.06625C31.7352 1.06477 31.691 1.06414 31.6468 1.06497C31.6105 1.0657 31.5745 1.06751 31.5381 1.06969C31.4883 1.07276 31.4387 1.07692 31.3891 1.08294C31.3589 1.08648 31.329 1.09088 31.2988 1.09559C31.242 1.10442 31.1857 1.11498 31.1296 1.12746C31.1081 1.13238 31.0866 1.13763 31.0649 1.14309C30.9983 1.15985 30.9323 1.17928 30.8669 1.20128L30.8374 1.21147C30.2535 1.41608 29.7393 1.82701 29.4181 2.41394L24.4264 11.5377L19.4346 2.41394C18.7448 1.15315 17.1672 0.692262 15.9107 1.38434C14.6544 2.07654 14.1951 3.65971 14.8848 4.92046L21.4657 16.9491L14.8848 28.9776C14.1951 30.2384 14.6544 31.8216 15.9107 32.5138C16.3072 32.732 16.7353 32.8356 17.1574 32.8356C18.0739 32.8356 18.9624 32.3474 19.4346 31.4841L24.4264 22.3604L29.4181 31.4841C29.8905 32.3475 30.7788 32.8356 31.6953 32.8356C32.1175 32.8356 32.5458 32.732 32.942 32.5138C34.1983 31.8216 34.6577 30.2384 33.9679 28.9776L27.387 16.9491L31.7864 8.90776L40.8891 24.2699C41.3743 25.0889 42.237 25.5436 43.1221 25.5436C43.5731 25.5436 44.0304 25.4255 44.4463 25.1774C45.6783 24.4423 46.0831 22.8442 45.3506 21.608ZM44.6693 29.7105C44.6693 28.2721 45.8313 27.1062 47.2645 27.1062C48.6978 27.1062 49.8596 28.2721 49.8596 29.7105C49.8596 31.1488 48.6978 32.3147 47.2645 32.3147C45.8313 32.3147 44.6693 31.1488 44.6693 29.7105Z" fill="#003562"/>
<path d="M74.772 21.6523L78.2256 8.38477H82.0302L76.7417 27.582H72.9101L68.5389 13.9084L64.1678 27.582H60.2823L54.9668 8.38477H58.9062L62.4139 21.598L66.6502 8.38477H70.5086L74.772 21.6523Z" fill="#1C1D1F"/>
<path fill-rule="evenodd" clip-rule="evenodd" d="M92.4187 25.7686V25.931C92.4187 26.5267 92.4633 27.0776 92.5536 27.5828H95.9803C95.9083 26.7885 95.8724 25.9852 95.8724 25.173V14.2611H92.3917V15.9128C92.1758 15.4077 91.753 14.9426 91.1235 14.5184C90.4936 14.0943 89.6484 13.8818 88.5872 13.8818C86.6983 13.8818 85.1604 14.5501 83.9731 15.8856C82.7859 17.2217 82.1924 18.8824 82.1924 20.8676C82.1924 22.9078 82.7947 24.6 84.0002 25.9446C85.2052 27.2895 86.77 27.9618 88.695 27.9618C89.5585 27.9618 90.3229 27.7588 90.9887 27.3524C91.6537 26.9465 92.1307 26.4183 92.4187 25.7686ZM85.8079 20.8674C85.8079 19.6762 86.1183 18.733 86.7388 18.0382C87.3595 17.3434 88.1555 16.9957 89.1268 16.9957C90.0981 16.9957 90.8849 17.3434 91.4877 18.0382C92.0901 18.733 92.3917 19.6762 92.3917 20.8674C92.3917 22.0589 92.0857 23.0202 91.4743 23.7512C90.8625 24.4824 90.08 24.8478 89.1268 24.8478C88.1555 24.8478 87.3595 24.4824 86.7388 23.7512C86.1183 23.0202 85.8079 22.0589 85.8079 20.8674Z" fill="#1C1D1F"/>
<path d="M104.156 32.8354H100.351L103.481 25.9037L97.8418 14.2607H101.862L105.397 22.0588L108.662 14.2607H112.493L104.156 32.8354Z" fill="#1C1D1F"/>
<path d="M136.292 27.582H132.623V14.1249L127.118 27.582H124.015L118.511 14.2334V27.582H114.949V8.38477H119.86L125.607 22.248L131.22 8.38477H136.292V27.582Z" fill="#1C1D1F"/>
<path fill-rule="evenodd" clip-rule="evenodd" d="M146.276 13.8535C144.279 13.8535 142.62 14.5215 141.298 15.8571C139.976 17.1933 139.314 18.8809 139.314 20.9206C139.314 22.9606 139.976 24.6481 141.298 25.9839C142.62 27.32 144.279 27.9876 146.276 27.9876C148.273 27.9876 149.932 27.32 151.254 25.9839C152.576 24.6481 153.237 22.9606 153.237 20.9206C153.237 18.8809 152.576 17.1933 151.254 15.8571C149.932 14.5215 148.273 13.8535 146.276 13.8535ZM146.276 24.7118C145.34 24.7118 144.544 24.3779 143.888 23.7098C143.231 23.0423 142.903 22.1122 142.903 20.9211C142.903 19.7297 143.231 18.8002 143.888 18.1321C144.544 17.4645 145.34 17.1302 146.276 17.1302C147.211 17.1302 148.007 17.4645 148.664 18.1321C149.32 18.8002 149.649 19.7297 149.649 20.9211C149.649 22.1122 149.32 23.0423 148.664 23.7098C148.007 24.3779 147.211 24.7118 146.276 24.7118Z" fill="#1C1D1F"/>
<path d="M164.165 14.2055V17.8336C163.805 17.7617 163.445 17.7254 163.086 17.7254C162.06 17.7254 161.233 18.0192 160.603 18.6055C159.974 19.1923 159.659 20.1533 159.659 21.489V27.5814H156.07V14.2597H159.551V16.2362C160.199 14.8465 161.458 14.1514 163.329 14.1514C163.527 14.1514 163.805 14.1695 164.165 14.2055Z" fill="#1C1D1F"/>
<path fill-rule="evenodd" clip-rule="evenodd" d="M178.465 23.7636L175.47 22.8701C174.984 24.2238 173.977 24.9008 172.448 24.9008C171.548 24.9008 170.775 24.6122 170.128 24.0342C169.48 23.4568 169.138 22.7345 169.102 21.8683H178.6L178.627 21.6786C178.627 21.5703 178.631 21.426 178.64 21.2453C178.649 21.0653 178.654 20.9027 178.654 20.758C178.654 18.6101 178.074 16.9226 176.913 15.6948C175.753 14.4673 174.148 13.8535 172.097 13.8535C170.334 13.8535 168.805 14.5082 167.51 15.8167C166.215 17.1255 165.567 18.8085 165.567 20.8663C165.567 23.0324 166.233 24.7612 167.564 26.0514C168.895 27.3424 170.514 27.9876 172.421 27.9876C173.986 27.9876 175.295 27.5901 176.347 26.7961C177.399 26.0019 178.105 24.9912 178.465 23.7636ZM175.119 19.4039H169.183C169.219 18.7365 169.507 18.1314 170.046 17.59C170.586 17.0484 171.288 16.7775 172.151 16.7775C173.104 16.7775 173.828 17.0306 174.323 17.5356C174.818 18.0412 175.083 18.6639 175.119 19.4039Z" fill="#1C1D1F"/>
<path fill-rule="evenodd" clip-rule="evenodd" d="M256.631 23.9065C256.631 28.9482 259.506 32.4062 264.465 32.4062C269.393 32.4062 272.298 28.9482 272.298 23.9065C272.298 18.8644 269.393 15.4062 264.465 15.4062C259.506 15.4062 256.631 18.8322 256.631 23.9065ZM259.631 23.9066C259.631 20.5454 261.465 18.1538 264.465 18.1538C267.497 18.1538 269.298 20.5454 269.298 23.9066C269.298 27.2678 267.497 29.6598 264.465 29.6598C261.465 29.6598 259.631 27.2678 259.631 23.9066Z" fill="#0040E6"/>
<path d="M286.963 32.0876C286.866 32.0876 286.834 32.0236 286.801 31.9274L286.479 30.4915C286.417 30.3003 286.19 30.3636 286.126 30.4593C285.548 31.2899 283.973 32.4062 281.916 32.4062C276.614 32.4062 274.91 29.0235 274.91 24.8741V16.0973C274.91 16.0014 274.974 15.9375 275.07 15.9375H277.802C277.898 15.9375 277.962 16.0014 277.962 16.0973V24.8741C277.962 27.2996 279.055 29.6939 282.238 29.6939C284.937 29.6939 286.479 27.3635 286.479 24.8741V16.0973C286.479 16.0014 286.543 15.9375 286.641 15.9375H289.373C289.469 15.9375 289.533 16.0014 289.533 16.0973V31.9274C289.533 32.0236 289.469 32.0876 289.373 32.0876H286.963Z" fill="#0040E6"/>
<path d="M301.545 32.24C301.545 32.3384 301.482 32.4038 301.385 32.4038H298.936C296.297 32.4691 294.772 31.2285 294.772 28.552V18.4998C294.772 18.4022 294.708 18.3368 294.611 18.3368H291.782C291.686 18.3368 291.622 18.2714 291.622 18.1731V16.0522C291.622 15.9542 291.686 15.8887 291.782 15.8887H294.611C294.708 15.8887 294.772 15.8237 294.772 15.7257V11.3196C294.772 11.2217 294.835 11.1562 294.93 11.1562H297.633C297.728 11.1562 297.791 11.2217 297.791 11.3196V15.7257C297.791 15.8237 297.855 15.8887 297.951 15.8887H301.385C301.482 15.8887 301.545 15.9542 301.545 16.0522V18.1731C301.545 18.2714 301.482 18.3368 301.385 18.3368H297.951C297.855 18.3368 297.791 18.4022 297.791 18.4998V27.9972C297.791 29.0088 298.237 29.629 299.51 29.629H301.385C301.482 29.629 301.545 29.6944 301.545 29.7927V32.24Z" fill="#0040E6"/>
<path fill-rule="evenodd" clip-rule="evenodd" d="M311.451 29.6596C308.589 29.6596 306.884 27.5264 306.884 25.1666C306.884 25.0703 306.948 25.0055 307.044 25.0055H319.044C319.139 25.0055 319.173 24.9407 319.204 24.8437C319.268 24.5846 319.301 24.2296 319.301 23.9065C319.301 18.8644 316.469 15.4062 311.451 15.4062C306.466 15.4062 303.634 18.8322 303.634 23.9065C303.634 28.9482 306.626 32.4062 311.451 32.4062C315.086 32.4062 317.95 30.5643 318.786 27.3968C318.819 27.2677 318.721 27.235 318.625 27.235H315.762C315.666 27.235 315.602 27.2677 315.537 27.3968C314.861 28.6902 313.736 29.6596 311.451 29.6596ZM306.884 22.4196C306.884 20.9008 308.331 18.1538 311.451 18.1538C314.637 18.1538 315.955 20.5773 315.955 22.4196C315.955 22.517 315.891 22.5815 315.795 22.5815H307.044C306.98 22.5815 306.884 22.517 306.884 22.4196Z" fill="#0040E6"/>
<path fill-rule="evenodd" clip-rule="evenodd" d="M329.731 29.6596C326.867 29.6596 325.162 27.5264 325.162 25.1666C325.162 25.0703 325.226 25.0055 325.324 25.0055H337.323C337.42 25.0055 337.451 24.9407 337.485 24.8437C337.549 24.5846 337.581 24.2296 337.581 23.9065C337.581 18.8644 334.75 15.4062 329.731 15.4062C324.743 15.4062 321.913 18.8322 321.913 23.9065C321.913 28.9482 324.904 32.4062 329.731 32.4062C333.366 32.4062 336.229 30.5643 337.066 27.3968C337.098 27.2677 337.002 27.235 336.905 27.235H334.042C333.945 27.235 333.881 27.2677 333.816 27.3968C333.14 28.6902 332.015 29.6596 329.731 29.6596ZM325.162 22.4196C325.162 20.9008 326.61 18.1538 329.731 18.1538C332.916 18.1538 334.234 20.5773 334.234 22.4196C334.234 22.517 334.169 22.5815 334.074 22.5815H325.324C325.259 22.5815 325.162 22.517 325.162 22.4196Z" fill="#0040E6"/>
<path fill-rule="evenodd" clip-rule="evenodd" d="M247.808 9.5625H238.513C238.416 9.5625 238.353 9.62756 238.353 9.72457V32.2435C238.353 32.3412 238.416 32.4062 238.513 32.4062H241.219C241.314 32.4062 241.378 32.3412 241.378 32.2435V23.4827C241.378 23.3854 241.441 23.3208 241.536 23.3208H247.362C247.458 23.3208 247.553 23.3854 247.584 23.4827L251.405 32.2435C251.5 32.4062 251.628 32.4062 251.723 32.4062H254.365C254.461 32.4062 254.589 32.4062 254.525 32.2435L250.45 22.9309C250.386 22.8016 250.45 22.7366 250.514 22.7038C252.71 21.6654 254.301 19.3293 254.301 16.5062C254.301 12.645 251.309 9.5625 247.808 9.5625ZM241.378 12.4828C241.378 12.3854 241.441 12.3204 241.536 12.3204H247.426C249.432 12.3204 251.278 14.2674 251.278 16.5062C251.278 18.7131 249.496 20.4977 247.553 20.5627H241.536C241.441 20.5627 241.378 20.4977 241.378 20.3999V12.4828Z" fill="#0040E6"/>
<g clip-path="url(#clip0_1403_2756)">
<path d="M217.814 20.9191C217.003 20.9191 216.346 20.2535 216.346 19.4345C216.346 18.6161 217.003 17.9517 217.814 17.9517C221.617 17.9517 224.711 14.829 224.711 10.9897C224.711 7.15036 221.617 4.02623 217.814 4.02623C217.003 4.02623 216.346 3.36284 216.346 2.54488C216.346 1.72693 217.003 1.0625 217.814 1.0625C223.237 1.0625 227.647 5.5152 227.647 10.9897C227.647 16.4631 223.237 20.9191 217.814 20.9191Z" fill="#0040E6"/>
<path d="M208.127 2.62979C208.127 3.4964 207.436 4.19775 206.586 4.19775C205.735 4.19775 205.045 3.4964 205.045 2.62979C205.045 1.76312 205.735 1.0625 206.586 1.0625C207.436 1.0625 208.127 1.76312 208.127 2.62979Z" fill="#0040E6"/>
<path d="M208.127 8.37908C208.127 9.24387 207.436 9.94579 206.586 9.94579C205.735 9.94579 205.045 9.24387 205.045 8.37908C205.045 7.51211 205.735 6.81055 206.586 6.81055C207.436 6.81055 208.127 7.51211 208.127 8.37908Z" fill="#0040E6"/>
<ellipse rx="1.57729" ry="1.60447" transform="matrix(0.999998 -0.00215586 0.00208344 0.999998 206.626 14.1304)" fill="#0040E6"/>
<path d="M208.127 19.873C208.127 20.7405 207.436 21.4419 206.586 21.4419C205.735 21.4419 205.045 20.7405 205.045 19.873C205.045 19.0078 205.735 18.3066 206.586 18.3066C207.436 18.3066 208.127 19.0078 208.127 19.873Z" fill="#0040E6"/>
<path d="M208.127 25.623C208.127 26.4893 207.436 27.1899 206.586 27.1899C205.735 27.1899 205.045 26.4893 205.045 25.623C205.045 24.7575 205.735 24.0547 206.586 24.0547C207.436 24.0547 208.127 24.7575 208.127 25.623Z" fill="#0040E6"/>
<ellipse rx="1.57729" ry="1.6046" transform="matrix(0.999998 -0.0021201 0.00204888 0.999998 206.626 31.3317)" fill="#0040E6"/>
<path d="M213.777 19.873C213.777 20.7405 213.087 21.4419 212.235 21.4419C211.385 21.4419 210.695 20.7405 210.695 19.873C210.695 19.0078 211.385 18.3066 212.235 18.3066C213.087 18.3066 213.777 19.0078 213.777 19.873Z" fill="#0040E6"/>
<path d="M219.428 25.623C219.428 26.4893 218.737 27.1899 217.886 27.1899C217.036 27.1899 216.346 26.4893 216.346 25.623C216.346 24.7575 217.036 24.0547 217.886 24.0547C218.737 24.0547 219.428 24.7575 219.428 25.623Z" fill="#0040E6"/>
<path d="M225.079 31.3692C225.079 32.2355 224.39 32.937 223.537 32.937C222.687 32.937 221.997 32.2355 221.997 31.3692C221.997 30.504 222.687 29.8018 223.537 29.8018C224.39 29.8018 225.079 30.504 225.079 31.3692Z" fill="#0040E6"/>
</g>
<defs>
<clipPath id="clip0_1403_2756">
<rect width="22.6722" height="31.875" fill="white" transform="translate(205.045 1.0625)"/>
</clipPath>
</defs>
</svg>
